# xmcd
#
# Track frame offsets: 
#        150
#        20504
#        46011
#        65024
#        87802
#        108152
#        132928
#        175747
#        193630
#
# Disc length: 2830 seconds
#
# Revision: 0
# Processed by: cddbd v1.4PL0 Copyright (c) Steve Scherf et al.
# Submitted via: ExactAudioCopy v0.90b4
#
DISCID=6d0b0c09
DTITLE=Van Morrison - Let Us Ramble Through The Midnight Fair, disc 1
DYEAR=1999
DGENRE=Celtic
TTITLE0=Inarticulate Speech Of The Heart # 1
TTITLE1=Moondance
TTITLE2=Back On Top
TTITLE3=In The Midnight
TTITLE4=It Fills You Up
TTITLE5=Going Down Geneva
TTITLE6=In The Afternoon > Joe Turner Sings > Don't You Make Me High >
TTITLE6=Sex Machine
TTITLE7=For Mr. Thomas
TTITLE8=Cleaning Windows
EXTD=
EXTT0=
EXTT1=
EXTT2=
EXTT3=
EXTT4=
EXTT5=
EXTT6=
EXTT7=
EXTT8=
PLAYORDER=
